
<svg width="18px" height="27px" viewBox="0 0 18 27" version="1.1" xmlns="http://www.w3.org/2000/svg" xmlns:xlink="http://www.w3.org/1999/xlink">
    <g id="Page-1" stroke="none" stroke-width="1" fill="none" fill-rule="evenodd">
        <g id="Illuminate-a-Path_1_v2_MD" transform="translate(-126.000000, -374.000000)" fill="#FFFFFF" fill-rule="nonzero">
            <g id="Darken-+-brighten-overlay">
                <g id="Group-14" transform="translate(108.000000, 360.000000)">
                    <path d="M34.5104552,32.8532508 C34.5174793,32.9473797 34.5197059,33.0418111 34.517126,33.1361708 C34.517126,33.1536849 34.517126,33.1725463 34.517126,33.1914076 C34.5094871,33.3612528 34.4858096,33.5299737 34.4464158,33.6952747 C34.439745,33.7100943 34.4437475,33.7262612 34.439745,33.742428 C34.4357426,33.7585949 34.422401,33.7747617 34.422401,33.7922758 C34.3877474,33.9222165 34.3431412,34.0492397 34.2889856,34.172197 C34.283649,34.1843221 34.2756441,34.1964473 34.2756441,34.2085724 C34.2142346,34.3453805 34.141954,34.4769417 34.0595111,34.601966 C34.0408329,34.6289107 34.0194864,34.6545083 33.9994741,34.681453 C33.9289031,34.7791763 33.8517864,34.8719037 33.7686654,34.9589841 C33.739314,34.9886233 33.7112968,35.0196098 33.6806112,35.049249 C33.5698618,35.1579892 33.4502563,35.2571357 33.3230579,35.3456414 L31.0243099,36.9165211 L28.6922081,38.5089566 C27.8709158,39.0550506 27.4104228,40.0103857 27.4914692,41 C27.043738,40.8036154 26.65497,40.4918739 26.3641088,40.0960032 C25.9391715,39.5161781 25.768885,38.7854847 25.8931523,38.075146 C25.8924125,38.0693318 25.8924125,38.063446 25.8931523,38.0576319 C25.9120786,37.9538528 25.9370258,37.851286 25.967865,37.7504616 C25.9718674,37.7356419 25.9812065,37.7208223 25.9812065,37.7060027 C26.0110988,37.6141856 26.0462918,37.5242156 26.0866047,37.4365551 C26.2425349,37.0847817 26.4697844,36.7699378 26.7536819,36.5123497 C26.8311963,36.4446877 26.9122516,36.3812763 26.996498,36.3223891 C27.0151761,36.3089167 27.031186,36.2927499 27.0511983,36.2792775 L29.3726269,34.6935782 L31.6887188,33.1132678 L34.0101473,31.5262212 C34.2893894,31.915269 34.4573837,32.3743272 34.4957795,32.8532508 L34.5104552,32.8532508 Z M35.9900324,25.7789032 C36.0012044,25.9169338 36.0029874,26.0555756 35.995369,26.1938526 C35.9873641,26.2261863 35.9873641,26.2571728 35.9873641,26.2895065 C35.9806933,26.3892021 35.9700201,26.4875505 35.9540102,26.5872461 C35.9460053,26.6411357 35.9299954,26.7098448 35.9219905,26.750262 C35.9139856,26.7906791 35.908649,26.8324435 35.8979757,26.8728606 C35.8926391,26.8930692 35.8833,26.9132778 35.8766293,26.9334864 C35.8346896,27.0960402 35.7802692,27.2550466 35.7138624,27.4090614 C35.7085258,27.4225338 35.7045234,27.4373534 35.6978526,27.4508258 C35.6190081,27.6224928 35.5257198,27.7870104 35.4190143,27.9425677 C35.3963337,27.9762487 35.3696506,28.0085824 35.3456358,28.0409161 C35.2560744,28.1624553 35.1589287,28.2781034 35.0547902,28.3871563 C35.0174339,28.424879 34.9827459,28.4626017 34.9440554,28.4989771 C34.8028963,28.6362791 34.6507282,28.7615506 34.4891087,28.8735093 L31.5806523,30.8512549 L28.6655251,32.8290005 L25.751732,34.8067462 C24.7263703,35.4832435 24.1506753,36.6728198 24.2521425,37.9053939 C23.6904327,37.6628062 23.2024544,37.2741736 22.8379389,36.7791028 C22.3476952,36.1176168 22.1253845,35.2923962 22.216223,34.4712839 C22.215501,34.4668227 22.215501,34.4622727 22.216223,34.4578115 C22.2215596,34.4079637 22.2295645,34.3581159 22.2375694,34.3082681 C22.2415719,34.2826705 22.2442402,34.2597675 22.2495768,34.2314755 C22.2549134,34.2031835 22.2562476,34.1883639 22.2669208,34.1465995 C22.2775941,34.1048351 22.2869331,34.059029 22.2989405,34.0118757 C22.2989405,34.0051395 22.2989405,33.9984033 22.2989405,33.9903198 C22.4918534,33.2622356 22.9177643,32.6189987 23.5103527,32.1607704 L23.6157509,32.0839778 C23.6451023,32.0637693 23.6731195,32.0408662 23.7038051,32.0206577 L26.6189323,30.042912 L29.5327254,28.0638192 L32.4478526,26.0806846 C33.4737226,25.4045215 34.0499602,24.2148826 33.9487762,22.9820368 C34.6476716,23.2768857 35.2270482,23.8021087 35.5924544,24.4720822 C35.6124667,24.5084577 35.6284766,24.5434859 35.6458206,24.5798613 C35.6978526,24.6728207 35.7418797,24.7657802 35.779236,24.8614341 C35.7939117,24.8991567 35.8072532,24.9368794 35.8205948,24.9759493 C35.8552828,25.0742977 35.8846342,25.1739933 35.9099831,25.2750362 L35.9339979,25.3733846 C35.9592706,25.4912393 35.9779781,25.6104324 35.9900324,25.7304027 C35.9900324,25.7425278 35.9900324,25.7560002 35.9900324,25.7681253 L35.9900324,25.7789032 Z M28.3439939,26.5845517 L25.1313502,28.7967167 L21.9187066,31.010229 C20.7822934,31.7785814 20.1495404,33.1101748 20.2670235,34.4861035 C19.6467853,34.210843 19.1096473,33.7748734 18.7100654,33.2223941 C18.1678618,32.4776623 17.9221887,31.5545649 18.0216417,30.6356968 C18.0216417,30.6316551 18.0216417,30.6208772 18.0216417,30.6208772 C18.0283125,30.5642932 18.0363174,30.5090564 18.0456565,30.4538197 L18.0576639,30.3662492 L18.0776762,30.2719425 C18.0883494,30.2194002 18.0990227,30.1682052 18.1123642,30.1156629 C18.1139656,30.1074179 18.1161958,30.0993104 18.119035,30.0914126 C18.328132,29.2790007 18.7971518,28.5590991 19.4531893,28.0436106 C19.4958823,28.0085824 19.5412435,27.9775959 19.5866048,27.9452622 L19.6653199,27.8859837 L22.8779635,25.6724714 L26.089273,23.4603064 L29.3019167,21.2481413 C30.4380476,20.4796566 31.0703285,19.1479812 30.9522656,17.7722669 C31.5779425,18.0431899 32.1212035,18.4769469 32.5265677,19.0292401 C32.6199403,19.1583503 32.7050546,19.2933487 32.7813912,19.4334115 L32.840094,19.5533157 C32.8841211,19.657053 32.9321506,19.7621376 32.9735094,19.8685694 C32.9908534,19.91707 33.0055291,19.9601816 33.0202048,20.0032932 C33.0588953,20.1137668 33.090915,20.2255875 33.1189322,20.3387556 C33.1269372,20.375131 33.1376104,20.4115064 33.1456153,20.4478818 C33.1733663,20.5813728 33.1938541,20.7162988 33.2069864,20.8520533 C33.2069864,20.8668729 33.2069864,20.8803453 33.2069864,20.8951649 L33.2069864,20.9059428 C33.2205246,21.0600272 33.2240899,21.2148395 33.2176597,21.3693927 C33.2096547,21.4057682 33.2096547,21.4421436 33.2096547,21.4771718 C33.2016498,21.5889926 33.1909766,21.6994661 33.1736326,21.8099396 C33.1642935,21.8719126 33.1469495,21.9500524 33.1376104,21.9918168 C33.1282713,22.0335812 33.1229347,22.0807345 33.1122615,22.1265406 C33.1055907,22.1494436 33.0949175,22.1723467 33.0882467,22.1952497 C33.0406603,22.3792166 32.9795647,22.5593471 32.9054675,22.734145 L32.8867894,22.7826456 C32.7996821,22.9740973 32.6970473,23.1579481 32.5799339,23.3323187 C32.554585,23.3700414 32.5252336,23.4064168 32.4985505,23.4441395 C32.4000498,23.5797547 32.2931013,23.7089015 32.1783534,23.8307969 C32.1383288,23.8725612 32.0996383,23.9156729 32.0569454,23.95609 C31.9018724,24.1095413 31.7340424,24.2492687 31.5553034,24.3737338 L28.3439939,26.5845517 Z M21.9267115,24.2969413 C21.515127,23.7270741 21.2869139,23.0432457 21.2729759,22.338057 C21.2729759,22.2653061 21.2703075,22.1763884 21.2729759,22.1184572 C21.2756442,22.0605259 21.2809808,22.0079836 21.2889857,21.9258021 C21.2969906,21.8436206 21.3049956,21.7600918 21.3183371,21.6779103 C21.3276762,21.6213263 21.3396836,21.5660895 21.351691,21.5095055 C21.3717033,21.4192406 21.3943839,21.3289756 21.421067,21.2400579 C21.4344085,21.1915573 21.4504184,21.144404 21.4664282,21.0972506 C21.4997821,20.9989023 21.5384726,20.9032483 21.5811655,20.8075944 C21.5918387,20.7846914 21.5985095,20.7590939 21.6091827,20.7361908 C21.8073678,20.31234 22.0866829,19.9322993 22.4310218,19.6179831 C22.5110711,19.549274 22.6004594,19.4805648 22.6885136,19.4145502 C22.7392115,19.3808692 22.7765678,19.3444938 22.821929,19.3135073 L25.8237763,17.246844 C26.8861815,16.5298171 27.4777268,15.2855603 27.3673929,14 C27.949476,14.2560692 28.4539983,14.6632733 28.829626,15.1801806 C28.9171919,15.301729 28.9965321,15.429108 29.0671055,15.561449 C29.0871178,15.5978245 29.1031277,15.6355471 29.1218058,15.6719226 C29.1711695,15.7702709 29.2165308,15.8672721 29.2552213,15.9669677 C29.269897,16.0073849 29.2845727,16.047802 29.2979142,16.0882192 C29.3338488,16.1912114 29.3645741,16.2959822 29.3899709,16.4021256 C29.3993099,16.4358066 29.4073149,16.4694876 29.4153198,16.5031685 C29.4410438,16.6264369 29.4601943,16.7510112 29.4726884,16.8763535 C29.4726884,16.8898259 29.4726884,16.9032982 29.4726884,16.9167706 L29.4726884,16.9275485 C29.4873662,17.0694014 29.4936035,17.2120158 29.4913666,17.354623 C29.4900324,17.3896512 29.4820275,17.4219849 29.4820275,17.4570131 C29.4753567,17.5607505 29.4646835,17.6631406 29.4486736,17.7655307 C29.4406687,17.8234619 29.425993,17.8881293 29.4166539,17.9366299 C29.4073149,17.9851305 29.4019782,18.0282421 29.391305,18.0713537 C29.3859684,18.0929095 29.3699585,18.1131181 29.3699585,18.1346739 C29.3252159,18.3050078 29.2676806,18.4716499 29.1978526,18.633152 C29.1911819,18.6479717 29.1805086,18.6627913 29.1805086,18.6776109 C29.0995618,18.8566557 29.0035977,19.0283808 28.8936654,19.1909086 C28.8696507,19.2259368 28.8429676,19.2596178 28.8176186,19.294646 C28.7258234,19.4213866 28.6259977,19.5419921 28.5187681,19.6557058 C28.4814118,19.6961229 28.4453896,19.7351929 28.405365,19.7729155 C28.2588382,19.9165785 28.100383,20.0472903 27.9317402,20.1636146 L24.9285587,22.2302779 L21.9267115,24.2969413 Z" id="Combined-Shape"></path>
                </g>
            </g>
        </g>
    </g>
</svg>