
<svg width="24px" height="19px" viewBox="0 0 24 19" version="1.1" xmlns="http://www.w3.org/2000/svg" xmlns:xlink="http://www.w3.org/1999/xlink">
    <g id="Page-1" stroke="none" stroke-width="1" fill="none" fill-rule="evenodd">
        <g id="Illuminate-a-Path_5_v2_MD" transform="translate(-36.000000, -36.000000)" fill="#FFFFFF">
            <g id="Group-2" transform="translate(36.000000, 36.000000)">
                <path d="M0.666666667,8.57142857 L23.3333333,8.57142857 C23.7015232,8.57142857 24,8.8699054 24,9.23809524 L24,9.61904762 C24,9.98723745 23.7015232,10.2857143 23.3333333,10.2857143 L0.666666667,10.2857143 C0.298476833,10.2857143 1.26633558e-15,9.98723745 1.22124533e-15,9.61904762 L1.11022302e-16,9.23809524 C6.59320524e-17,8.8699054 0.298476833,8.57142857 0.666666667,8.57142857 Z M0.666666667,17.1428571 L23.3333333,17.1428571 C23.7015232,17.1428571 24,17.441334 24,17.8095238 L24,18.1904762 C24,18.558666 23.7015232,18.8571429 23.3333333,18.8571429 L0.666666667,18.8571429 C0.298476833,18.8571429 1.26633558e-15,18.558666 1.22124533e-15,18.1904762 L1.11022302e-16,17.8095238 C6.59320524e-17,17.441334 0.298476833,17.1428571 0.666666667,17.1428571 Z M0.666666667,0 L23.3333333,0 C23.7015232,1.89447421e-15 24,0.298476833 24,0.666666667 L24,1.04761905 C24,1.41580888 23.7015232,1.71428571 23.3333333,1.71428571 L0.666666667,1.71428571 C0.298476833,1.71428571 1.42984471e-15,1.41580888 1.22124533e-15,1.04761905 L0,0.666666667 C-4.50902501e-17,0.298476833 0.298476833,6.76353751e-17 0.666666667,0 Z" id="hamburger"></path>
            </g>
        </g>
    </g>
</svg>
