
<svg width="228px" height="44px" viewBox="0 0 228 44" version="1.1" xmlns="http://www.w3.org/2000/svg" xmlns:xlink="http://www.w3.org/1999/xlink">
    <g id="Page-1" stroke="none" stroke-width="1" fill="none" fill-rule="evenodd">
        <g id="Illuminate-a-Path_1_v2_MD" transform="translate(-96.000000, -36.000000)" fill="#FFFFFF" fill-rule="nonzero">
            <g id="Group-2" transform="translate(36.000000, 36.000000)">
                <g id="Hamburger-+-KPSOM-logo" transform="translate(60.000000, 0.000000)">
                    <g id="KPSOM-logo">
                        <path d="M36.3956522,32.5217391 C35.7834541,31.7240953 34.8278642,31.2658384 33.8226087,31.2878261 C33.1864295,31.2156743 32.5487796,31.4102418 32.0612553,31.8252718 C31.573731,32.2403018 31.2798808,32.8387213 31.2495652,33.4782609 C31.2495652,34.9226087 32.4643478,35.3147826 33.9565217,35.7930435 C35.726087,36.3573913 37.7826087,37.0269565 37.7826087,39.6191304 C37.7826087,42.2113043 35.5634783,43.6269565 33.22,43.6269565 C31.5559761,43.6732875 29.9588143,42.9712384 28.8678261,41.713913 L30.3026087,40.5086957 C30.9817504,41.4984426 32.105742,42.0890751 33.306087,42.0869565 C33.9588842,42.1532911 34.6103871,41.9495558 35.1090899,41.5231287 C35.6077927,41.0967017 35.9102359,40.4847439 35.946087,39.8295652 C35.946087,38.2226087 34.4921739,37.7921739 32.8182609,37.266087 C31.1443478,36.74 29.3843478,35.9843478 29.3843478,33.5547826 C29.3843478,30.9243478 31.7373913,29.786087 33.9182609,29.786087 C35.347071,29.7429326 36.7307122,30.2894709 37.7443478,31.2973913 L36.3956522,32.5217391 Z" id="Shape"></path>
                        <path d="M51.0208696,41.273913 C49.8350254,42.8438843 47.9555148,43.7336145 45.9895652,43.6556522 C44.1220922,43.7318648 42.3077633,43.0240562 40.9852533,41.7033628 C39.6627433,40.3826694 38.9524414,38.5693152 39.026087,36.7017391 C38.9591582,34.8251249 39.6833379,33.0066514 41.0220164,31.6897991 C42.360695,30.3729468 44.1908264,29.6787557 46.066087,29.7765217 C47.8917849,29.6897064 49.6557973,30.4482317 50.8486957,31.8330435 L49.3947826,32.9521739 C48.6013284,31.9539414 47.3888969,31.3813062 46.113913,31.4026087 C44.7316965,31.3977032 43.4088102,31.9638215 42.4580415,32.9671089 C41.5072728,33.9703962 41.0130302,35.3217815 41.0921739,36.7017391 C41.0921739,39.6669565 43.0052174,42.02 46.0565217,42.02 C47.456988,42.0651281 48.7865152,41.4039578 49.5956522,40.26 L51.0208696,41.273913 Z" id="Shape"></path>
                        <polygon id="Shape" points="52.8191304 30.1113043 54.6652174 30.1113043 54.6652174 35.64 61.3608696 35.64 61.3608696 30.1113043 63.226087 30.1113043 63.226087 43.3208696 61.3417391 43.3208696 61.3417391 37.3043478 54.646087 37.3043478 54.646087 43.3495652 52.8191304 43.3495652"></polygon>
                        <path d="M71.7965217,43.6556522 C69.9258001,43.7373655 68.1063356,43.0319901 66.7795509,41.7106579 C65.4527661,40.3893257 64.7399041,38.5727814 64.813913,36.7017391 C64.9530945,32.9380456 68.0446035,29.9587475 71.8108696,29.9587475 C75.5771356,29.9587475 78.6686447,32.9380456 78.8078261,36.7017391 C78.8649163,38.5730159 78.1426193,40.3840193 76.8133821,41.702376 C75.4841449,43.0207327 73.6672661,43.7281206 71.7965217,43.6556522 Z M71.7965217,31.4026087 C70.4191663,31.4026568 69.1030083,31.9716679 68.159413,32.9750303 C67.2158177,33.9783926 66.7286079,35.3269742 66.8130435,36.7017391 C66.8130435,39.6478261 68.773913,42.0008696 71.7965217,42.0008696 C74.8191304,42.0008696 76.8086957,39.6478261 76.8086957,36.7017391 C76.8934605,35.3219818 76.402418,33.9688275 75.4525131,32.9645387 C74.5026081,31.9602499 73.1788578,31.394711 71.7965217,31.4026087 Z" id="Shape"></path>
                        <path d="M87.0434783,43.6556522 C85.1743803,43.7346125 83.3574848,43.0280192 82.0328383,41.7070068 C80.7081918,40.3859944 79.9966096,38.571047 80.0704348,36.7017391 C80.2096162,32.9380456 83.3011252,29.9587475 87.0673913,29.9587475 C90.8336574,29.9587475 93.9251664,32.9380456 94.0643478,36.7017391 C94.1215957,38.5747441 93.3980123,40.3873248 92.066646,41.7059942 C90.7352798,43.0246635 88.9158487,43.730845 87.0434783,43.6556522 Z M87.0434783,31.4026087 C84.0017391,31.4026087 82.0695652,33.8130435 82.0695652,36.7017391 C82.0695652,39.5904348 83.9826087,42.0008696 87.0434783,42.0008696 C88.4292585,42.0171672 89.7590022,41.4545621 90.7122821,40.4486248 C91.6655621,39.4426875 92.1559282,38.0846433 92.0652174,36.7017391 C92.1472215,35.3210471 91.6539372,33.9680172 90.7025495,32.9640767 C89.7511618,31.9601362 88.4265819,31.3948864 87.0434783,31.4026087 Z" id="Shape"></path>
                        <polygon id="Shape" points="97.8043478 41.6852174 103.696522 41.6852174 103.696522 43.3208696 95.9582609 43.3208696 95.9582609 30.1113043 97.8043478 30.1113043"></polygon>
                        <path d="M115.26087,43.6556522 C113.391772,43.7346125 111.574876,43.0280192 110.25023,41.7070068 C108.925583,40.3859944 108.214001,38.571047 108.287826,36.7017391 C108.427008,32.9380456 111.518517,29.9587475 115.284783,29.9587475 C119.051049,29.9587475 122.142558,32.9380456 122.281739,36.7017391 C122.338987,38.5747441 121.615404,40.3873248 120.284037,41.7059942 C118.952671,43.0246635 117.13324,43.730845 115.26087,43.6556522 Z M115.26087,31.4026087 C112.21913,31.4026087 110.286957,33.8130435 110.286957,36.7017391 C110.286957,39.5904348 112.2,42.0008696 115.26087,42.0008696 C116.64665,42.0171672 117.976394,41.4545621 118.929673,40.4486248 C119.882953,39.4426875 120.37332,38.0846433 120.282609,36.7017391 C120.364613,35.3210471 119.871328,33.9680172 118.919941,32.9640767 C117.968553,31.9601362 116.643973,31.3948864 115.26087,31.4026087 Z" id="Shape"></path>
                        <polygon id="Shape" points="125.897391 43.3208696 124.051304 43.3208696 124.051304 30.1113043 132.296522 30.1113043 132.296522 31.7373913 125.897391 31.7373913 125.897391 35.8408696 131.885217 35.8408696 131.885217 37.4286957 125.897391 37.4286957"></polygon>
                        <polygon id="Shape" points="145.955652 40.26 145.955652 40.26 149.858261 30.1113043 152.727826 30.1113043 152.727826 43.3208696 150.881739 43.3208696 150.881739 32.2826087 150.881739 32.2826087 146.50087 43.3208696 145.324348 43.3208696 140.962609 32.2826087 140.962609 32.2826087 140.962609 43.3208696 139.164348 43.3208696 139.164348 30.1113043 142.033913 30.1113043"></polygon>
                        <polygon id="Shape" points="157.634783 41.6852174 164.521739 41.6852174 164.521739 43.3208696 155.769565 43.3208696 155.769565 30.1113043 164.244348 30.1113043 164.244348 31.7373913 157.634783 31.7373913 157.634783 35.6973913 163.871304 35.6973913 163.871304 37.3043478 157.634783 37.3043478"></polygon>
                        <path d="M167.190435,30.1113043 L171.724348,30.1113043 C175.10087,30.1113043 178.850435,32.0243478 178.850435,36.7208696 C178.850435,41.2356522 175.10087,43.3208696 171.724348,43.3208696 L167.190435,43.3208696 L167.190435,30.1113043 Z M169.036522,41.7043478 L171.351304,41.7043478 C174.536522,41.7043478 176.870435,39.8678261 176.870435,36.7208696 C176.870435,33.573913 174.536522,31.7182609 171.351304,31.7182609 L169.036522,31.7182609 L169.036522,41.7043478 Z" id="Shape"></path>
                        <polygon id="Shape" points="182.953913 43.3208696 181.107826 43.3208696 181.107826 30.1113043 182.953913 30.1113043"></polygon>
                        <path d="M196.928696,41.273913 C195.741789,42.8425782 193.863004,43.7319651 191.897391,43.6556522 C190.029918,43.7318648 188.215589,43.0240562 186.893079,41.7033628 C185.570569,40.3826694 184.860267,38.5693152 184.933913,36.7017391 C184.867185,34.8268746 185.590084,33.0100144 186.926617,31.6934845 C188.263149,30.3769547 190.090703,29.6815321 191.964348,29.7765217 C193.789521,29.692593 195.552324,30.450598 196.746957,31.8330435 L195.293043,32.9521739 C194.495665,31.9536053 193.2803,31.3812533 192.002609,31.4026087 C190.621164,31.3975378 189.299115,31.9639471 188.349832,32.9675789 C187.400548,33.9712107 186.908542,35.3227143 186.990435,36.7017391 C186.990435,39.6669565 188.903478,42.02 191.954783,42.02 C193.355249,42.0651281 194.684776,41.4039578 195.493913,40.26 L196.928696,41.273913 Z" id="Shape"></path>
                        <polygon id="Shape" points="201.032174 43.3208696 199.186087 43.3208696 199.186087 30.1113043 201.032174 30.1113043"></polygon>
                        <polygon id="Shape" points="213.457391 40.6713043 213.457391 40.6713043 213.457391 30.1495652 215.303478 30.1495652 215.303478 43.3208696 213.017391 43.3208696 206.034783 32.5217391 206.034783 32.5217391 206.034783 43.3208696 204.188696 43.3208696 204.188696 30.1113043 206.608696 30.1113043"></polygon>
                        <polygon id="Shape" points="220.22 41.6852174 227.116522 41.6852174 227.116522 43.3208696 218.373913 43.3208696 218.373913 30.1113043 226.83913 30.1113043 226.83913 31.7373913 220.22 31.7373913 220.22 35.6973913 226.446957 35.6973913 226.446957 37.3043478 220.22 37.3043478"></polygon>
                        <path d="M14.1373913,6.89652174 C13.8949636,6.69524651 13.6200152,6.5367468 13.3243478,6.42782609 L12.8652174,15.7347826 L15.18,9.2973913 C15.3228342,8.36322485 14.9175174,7.42988076 14.1373913,6.89652174 Z" id="Shape"></path>
                        <path d="M10.3113043,6.33217391 L11.6695652,15.6295652 L12.9991304,6.34173913 C12.1310147,6.02594972 11.1794201,6.02594972 10.3113043,6.34173913 L10.3113043,6.33217391 Z" id="Shape"></path>
                        <path d="M9.1826087,6.88695652 C8.4024826,7.42031554 7.99716584,8.35365963 8.14,9.28782609 L10.4547826,15.7252174 L9.99565217,6.41826087 C9.69998485,6.52718158 9.42503636,6.6856813 9.1826087,6.88695652 Z" id="Shape"></path>
                        <path d="M4.52434783,7.77652174 C6.06434783,10.5217391 7.65217391,13.3913043 9.1826087,15.9930435 C8.6373913,13.7165217 8.0826087,9.93826087 7.26956522,8.87652174 C6.57389779,8.08755971 5.54295961,7.6787394 4.49565217,7.77652174 L4.52434783,7.77652174 Z" id="Shape"></path>
                        <path d="M1.77913043,9.13478261 L8.11130435,16.4713043 L4.18956522,7.8626087 C3.23003562,7.88130816 2.33600493,8.35315769 1.77913043,9.13478261 Z" id="Shape"></path>
                        <path d="M15.0173913,11.1147826 L13.9747826,16.146087 C15.3043478,13.8026087 16.6530435,11.4782609 17.9634783,9.13478261 C16.6530137,9.07555999 15.4575256,9.87902111 15.0173913,11.1147826 Z" id="Shape"></path>
                        <path d="M18.3365217,9.13478261 L14.9982609,16.586087 L20.8617391,10.1773913 C20.1959368,9.50220765 19.2847244,9.12598737 18.3365217,9.13478261 Z" id="Shape"></path>
                        <path d="M0.956521739,12.4347826 C3.01304348,14.0226087 5.06,15.6582609 7.13565217,17.2173913 L1.57826087,9.38347826 C1.0824281,10.319817 0.866589299,11.3790874 0.956521739,12.4347826 Z" id="Shape"></path>
                        <path d="M21.5791304,11.0956522 C21.4574984,10.8424833 21.2923861,10.6126211 21.0913043,10.4165217 L16.0408696,17.3417391 C18.0495652,15.84 19.9913043,14.3095652 21.9234783,12.7886957 C21.9495283,12.2046284 21.8312596,11.6231406 21.5791304,11.0956522 Z" id="Shape"></path>
                        <path d="M0.956521739,15.6582609 L6.36086957,18.173913 C4.58173913,16.3565217 2.78347826,14.6252174 0.956521739,12.8747826 L0.956521739,15.6582609 Z" id="Shape"></path>
                        <path d="M21.9234783,15.84 L21.9234783,13.2956522 L16.8347826,18.2313043 C18.566087,17.4469565 20.1634783,16.6721739 21.9234783,15.84 Z" id="Shape"></path>
                        <path d="M0.956521739,18.173913 C2.57304348,18.5278261 4.3426087,18.9869565 5.80608696,19.3026087 L0.956521739,16.0408696 L0.956521739,18.173913 Z" id="Shape"></path>
                        <path d="M21.9234783,18.2695652 L21.9234783,16.3565217 C20.4026087,17.3130435 18.8147826,18.3365217 17.4086957,19.3408696 L21.9234783,18.3078261 L21.9234783,18.2695652 Z" id="Shape"></path>
                        <polygon id="Shape" points="0.966086957 20.5556522 5.70086957 20.5556522 0.966086957 18.5182609 0.966086957 20.5556522"></polygon>
                        <path d="M21.9234783,20.5556522 L21.9234783,18.7095652 C20.3643478,19.3791304 19.006087,19.933913 17.5426087,20.5556522 L21.9234783,20.5556522 Z" id="Shape"></path>
                        <path d="M20.2782609,6.69565217 C20.3302729,5.93968545 19.9564606,5.2177913 19.3090733,4.82398859 C18.661686,4.43018589 17.8487488,4.43018589 17.2013615,4.82398859 C16.5539741,5.2177913 16.1801619,5.93968545 16.2321739,6.69565217 C16.2321739,9.31652174 20.3834783,9.46956522 20.2782609,6.69565217 Z" id="Shape"></path>
                        <path d="M6.74347826,5.19391304 C6.8773913,2.32434783 2.45826087,2.45826087 2.63043478,5.19391304 C2.4773913,8.06347826 7.01130435,8.06347826 6.74347826,5.19391304 Z" id="Shape"></path>
                        <path d="M11.6791304,5.73913043 C12.3023121,5.78378136 12.914717,5.55901428 13.3610521,5.12182542 C13.8073872,4.68463655 14.0447839,4.07701595 14.0130435,3.45304348 C14.1154781,2.79384329 13.9092005,2.12414415 13.4536191,1.63682148 C12.9980378,1.14949882 12.3437271,0.898650541 11.6791304,0.956521739 C11.0193305,0.907983631 10.3733974,1.16290617 9.92458158,1.64896813 C9.47576574,2.13503009 9.2730384,2.79919626 9.37391304,3.45304348 C9.33671955,4.07339536 9.56830926,4.6797475 10.0095792,5.11735541 C10.4508491,5.55496333 11.05911,5.78149215 11.6791304,5.73913043 Z" id="Shape"></path>
                        <polygon id="Shape" points="46.5347826 20.4504348 48.4669565 20.4504348 48.4669565 9.28782609 46.5347826 9.28782609 46.5347826 20.4504348"></polygon>
                        <path d="M39.7052174,9.28782609 L36.433913,18.7573913 L33.2391304,14.7304348 L37.4956522,9.2973913 L35.2765217,9.2973913 L31.3356522,14.5869565 L31.3356522,9.28782609 L29.4226087,9.28782609 L29.4226087,20.4504348 L31.3356522,20.4504348 L31.3356522,14.9504348 L35.3913043,20.4504348 L37.706087,20.4504348 L38.7582609,17.2173913 L42.8521739,17.2173913 L43.9234783,20.4313043 L45.9130435,20.4313043 L42.0869565,9.28782609 L39.7052174,9.28782609 Z M39.2652174,15.6773913 L40.7478261,11.0573913 L42.2973913,15.6773913 L39.2652174,15.6773913 Z" id="Shape"></path>
                        <path d="M110.956522,17.3608696 L109.043478,9.27826087 L105.676522,9.27826087 L105.676522,20.4408696 L107.589565,20.4408696 L107.589565,10.8756522 L110.038261,20.4408696 L111.951304,20.4408696 C111.951304,20.4408696 114.38087,10.9426087 114.38087,10.9426087 L114.38087,20.4408696 L116.293913,20.4408696 L116.293913,9.27826087 L112.965217,9.27826087 L110.956522,17.3608696 Z" id="Shape"></path>
                        <path d="M121.095652,9.27826087 L117.269565,20.4504348 L119.182609,20.4504348 L120.158261,17.2173913 L124.252174,17.2173913 L125.304348,20.4504348 L127.322609,20.4504348 L123.496522,9.27826087 L121.095652,9.27826087 Z M120.655652,15.6678261 L122.138261,11.0478261 L123.687826,15.6678261 L120.655652,15.6678261 Z" id="Shape"></path>
                        <polygon id="Shape" points="135.166087 17.8965217 130.727826 9.28782609 128.173913 9.28782609 128.173913 20.4408696 130.00087 20.4408696 130.00087 12.0330435 134.372174 20.4408696 137.002609 20.4408696 137.002609 9.26869565 135.146957 9.26869565 135.146957 17.8773913"></polygon>
                        <polygon id="Shape" points="171.666957 18.8147826 167.085217 18.8147826 167.085217 15.6678261 170.48087 15.6678261 170.48087 14.0513043 167.085217 14.0513043 167.085217 10.8947826 171.284348 10.8947826 171.284348 9.26869565 165.181739 9.26869565 165.181739 20.4408696 171.676522 20.4408696 171.676522 18.8147826"></polygon>
                        <polygon id="Shape" points="154.105217 9.26869565 153.76087 9.26869565 153.76087 17.9826087 149.322609 9.27826087 146.787826 9.27826087 146.787826 18.8434783 140.933913 18.8434783 140.933913 15.6678261 144.32 15.6678261 144.32 14.0513043 140.933913 14.0513043 140.933913 10.8947826 145.123478 10.8947826 145.123478 9.26869565 139.030435 9.26869565 139.030435 20.4408696 148.595652 20.4408696 148.595652 11.9373913 152.966957 20.4408696 155.597391 20.4408696 155.597391 10.9713043 158.983478 10.9713043 158.983478 20.4504348 160.896522 20.4504348 160.896522 10.9713043 164.196522 10.9713043 164.196522 9.26869565"></polygon>
                        <path d="M102.883478,14.826087 C103.574097,14.2255806 103.962946,13.3497949 103.945217,12.4347826 C103.965374,11.536342 103.587212,10.6749722 102.912174,10.0817391 C102.233043,9.48869565 101.286087,9.26869565 99.6791304,9.26869565 L96.4365217,9.26869565 L96.4365217,13.9843478 L96.4365217,18.7669565 L90.5443478,18.7669565 L90.5443478,15.6678261 L93.94,15.6678261 L93.94,14.0513043 L90.5443478,14.0513043 L90.5443478,10.8947826 L94.6956522,10.8947826 L94.6956522,9.26869565 L88.6408696,9.26869565 L88.6408696,20.4408696 L98.3782609,20.4408696 L98.3782609,15.6582609 L99.3347826,15.6582609 C100.214783,17.0547826 102.09913,20.4408696 102.09913,20.4408696 L104.394783,20.4408696 L101.391304,15.5434783 C101.93874,15.4351165 102.449217,15.1881111 102.873913,14.826087 L102.883478,14.826087 Z M98.3782609,14.0608696 L98.3782609,10.913913 L100.004348,10.913913 C101.458261,10.913913 102.051304,11.4878261 102.051304,12.4634783 C102.051304,13.4391304 101.467826,14.0608696 100.004348,14.0608696 L98.3782609,14.0608696 Z" id="Shape"></path>
                        <path d="M72.4756522,14.826087 C73.1619654,14.2224083 73.549879,13.3487289 73.5373913,12.4347826 C73.553827,11.5350682 73.1722863,10.6739763 72.4947826,10.0817391 C71.8252174,9.48869565 70.8782609,9.26869565 69.2617391,9.26869565 L66,9.26869565 L66,13.9843478 L66,18.7669565 L60.1365217,18.7669565 L60.1365217,15.6678261 L63.5226087,15.6678261 L63.5226087,14.0513043 L60.1365217,14.0513043 L60.1365217,10.8947826 L64.326087,10.8947826 L64.326087,9.26869565 L58.2234783,9.26869565 L58.2234783,20.4408696 L67.9608696,20.4408696 L67.9608696,15.6582609 L68.9173913,15.6582609 C69.7973913,17.0547826 71.6817391,20.4408696 71.6817391,20.4408696 L73.9869565,20.4408696 L70.9834783,15.5243478 C71.5337506,15.415905 72.0473051,15.1690038 72.4756522,14.8069565 L72.4756522,14.826087 Z M67.9608696,14.0608696 L67.9608696,10.913913 L69.5869565,10.913913 C71.0408696,10.913913 71.633913,11.4878261 71.633913,12.4634783 C71.633913,13.4391304 71.06,14.0608696 69.5869565,14.0608696 L67.9608696,14.0608696 Z" id="Shape"></path>
                        <path d="M86.4026087,10.12 C85.4777156,9.46321031 84.3460084,9.16414055 83.2173913,9.27826087 L79.9365217,9.27826087 L79.9365217,20.4504348 L81.8495652,20.4504348 L81.8495652,15.8495652 L83.2173913,15.8495652 C84.3613908,15.9713702 85.5099193,15.6646416 86.4408696,14.9886957 C87.1162424,14.3586538 87.4947646,13.4731202 87.4834783,12.5495652 C87.5030053,11.6291301 87.1268694,10.7445144 86.4504348,10.12 L86.4026087,10.12 Z M83.5330435,14.2234783 L81.9069565,14.2234783 L81.9069565,10.913913 L83.5330435,10.913913 C84.9869565,10.913913 85.58,11.5643478 85.58,12.54 C85.58,13.5156522 84.92,14.2234783 83.5330435,14.2234783 Z" id="Shape"></path>
                        <path d="M54.0913043,13.9365217 C52.58,13.3721739 51.8530435,12.98 51.8530435,12.0234783 C51.8530435,11.353913 52.5321739,10.5886957 53.8713043,10.5886957 C54.7080666,10.6023709 55.5313547,10.801659 56.2817391,11.1721739 L56.2817391,9.61304348 C55.5380416,9.28041534 54.7337852,9.10458601 53.9191304,9.09652174 C51.5278261,9.09652174 49.8826087,10.4452174 49.8826087,12.2626087 C49.8826087,13.8695652 51.1165217,14.8452174 52.9913043,15.4956522 C54.4452174,16.0026087 55.0573913,16.5095652 55.0573913,17.4086957 C55.0573913,18.3078261 54.253913,19.0156522 52.9243478,19.0156522 C51.8517836,19.0021455 50.800833,18.7122281 49.8730435,18.173913 L49.8730435,19.9052174 C50.7673275,20.3394444 51.7484774,20.5651089 52.7426087,20.5652174 C55.6121739,20.5652174 56.9895652,19.006087 56.9895652,17.246087 C56.9895652,15.486087 56.0330435,14.6634783 54.0434783,13.9365217 L54.0913043,13.9365217 Z" id="Shape"></path>
                    </g>
                </g>
            </g>
        </g>
    </g>
</svg>
