
<svg width="27px" height="16px" viewBox="0 0 27 16" version="1.1" xmlns="http://www.w3.org/2000/svg" xmlns:xlink="http://www.w3.org/1999/xlink">
    <g id="Page-1" stroke="none" stroke-width="1" fill="none" fill-rule="evenodd">
        <g id="Illuminate-a-Path_1_v2_MD" transform="translate(-302.000000, -688.000000)" fill="#FFFFFF" fill-rule="nonzero">
            <g id="Immerse-yourself--&gt;" transform="translate(108.000000, 670.000000)">
                <g id="Group" transform="translate(22.000000, 17.000000)">
                    <path d="M190.67465,1.24062867 C190.362502,0.919790444 189.842982,0.919790444 189.51992,1.24062867 C189.207772,1.55062777 189.207772,2.06657032 189.51992,2.37584681 L195.375064,8.19067835 L172.392966,8.29231771 C171.94257,8.29304032 172.002667,8.6985386 172.002667,9.14583333 C172.002667,9.59312807 172.04576,9.93033854 172.496156,9.93033854 L195.375064,9.80859904 L189.51992,15.6125915 C189.207772,15.9334297 189.207772,16.4500948 189.51992,16.7593713 C189.842982,17.0802096 190.363229,17.0802096 190.67465,16.7593713 L197.915907,9.56797037 C198.238969,9.25797128 198.238969,8.74202872 197.915907,8.43275224 L190.67465,1.24062867 Z" id="right-arrow"></path>
                </g>
            </g>
        </g>
    </g>
</svg>
