
<svg width="24px" height="24px" viewBox="0 0 24 24" version="1.1" xmlns="http://www.w3.org/2000/svg" xmlns:xlink="http://www.w3.org/1999/xlink">
    <g id="Page-1" stroke="none" stroke-width="1" fill="none" fill-rule="evenodd">
        <g id="Illuminate-a-Path_1_v2_MD" transform="translate(-1381.000000, -49.000000)" fill="#FFFFFF" fill-rule="nonzero">
            <g id="Group-2" transform="translate(36.000000, 36.000000)">
                <path d="M1367.81866,34.8601973 L1362.10663,28.9193905 C1363.57529,27.173507 1364.37998,24.9768283 1364.37998,22.6899905 C1364.37998,17.347014 1360.03297,13 1354.68999,13 C1349.34701,13 1345,17.347014 1345,22.6899905 C1345,28.032967 1349.34701,32.379981 1354.68999,32.379981 C1356.69582,32.379981 1358.60727,31.7749886 1360.24151,30.6265141 L1365.99695,36.6124004 C1366.23751,36.8622336 1366.56107,37 1366.9078,37 C1367.236,37 1367.54734,36.8748727 1367.7837,36.6473686 C1368.28589,36.164133 1368.3019,35.3628129 1367.81866,34.8601973 Z M1354.68999,15.5278236 C1358.63929,15.5278236 1361.85216,18.7406874 1361.85216,22.6899905 C1361.85216,26.6392936 1358.63929,29.8521574 1354.68999,29.8521574 C1350.74069,29.8521574 1347.52782,26.6392936 1347.52782,22.6899905 C1347.52782,18.7406874 1350.74069,15.5278236 1354.68999,15.5278236 Z" id="search-icon"></path>
            </g>
        </g>
    </g>
</svg>
